<svg width="25" height="29" viewBox="0 0 25 29" fill="none" xmlns="http://www.w3.org/2000/svg">
<path d="M24.1779 12.5826C24.7943 12.9884 24.9625 13.8132 24.5536 14.4249L16.5613 26.3821C14.764 29.0712 10.7879 29.0777 8.98109 26.3951L0.922284 14.4288C0.511279 13.8185 0.67662 12.9931 1.29159 12.5852C1.90655 12.1773 2.73826 12.3414 3.14927 12.9517L11.208 24.9179C11.9522 26.0227 13.5893 26.0196 14.3292 24.9128L22.3215 12.9555C22.7304 12.3438 23.5615 12.1769 24.1779 12.5826Z" fill="#12121C"/>
<path fill-rule="evenodd" clip-rule="evenodd" d="M12.6428 11.7695C15.7494 11.7695 18.2678 9.27027 18.2678 6.18726C18.2678 3.10425 15.7494 0.60498 12.6428 0.60498C9.53622 0.60498 7.01782 3.10425 7.01782 6.18726C7.01782 9.27027 9.53622 11.7695 12.6428 11.7695ZM12.6428 9.43031C14.4476 9.43031 15.9107 7.97835 15.9107 6.18727C15.9107 4.39618 14.4476 2.94422 12.6428 2.94422C10.838 2.94422 9.37497 4.39618 9.37497 6.18727C9.37497 7.97835 10.838 9.43031 12.6428 9.43031Z" fill="#12121C"/>
</svg>
