<svg width="24" height="24" viewBox="0 0 24 24" fill="none" xmlns="http://www.w3.org/2000/svg">
<path d="M23.354 21.7254L22.0338 21.4276C22.3392 21.0105 22.465 20.4815 22.3677 19.9564C22.3151 19.6732 22.2007 19.4128 22.0391 19.1886C22.3286 19.1219 22.606 18.9907 22.8491 18.7962C22.9867 18.686 23.0672 18.5217 23.07 18.3455C23.0729 18.1692 22.9977 18.0023 22.8637 17.8877L19.692 15.1761C19.4585 14.9764 19.2835 14.7171 19.1858 14.4258L18.4448 12.2131L18.4441 12.2109L17.7768 10.2189C17.4742 9.31566 16.751 8.60604 15.8422 8.32066L13.5442 7.5989C14.1681 7.15895 14.5768 6.43309 14.5768 5.61317V4.01812C14.5768 2.67865 13.4871 1.58905 12.1478 1.58905C10.8085 1.58905 9.71871 2.67865 9.71871 4.01812V5.61334C9.71871 6.39543 10.0907 7.09202 10.6666 7.53643C10.607 7.55285 10.5476 7.57016 10.4883 7.58872L8.15775 8.32066C7.24895 8.60604 6.52576 9.31566 6.22324 10.2189L4.81399 14.4258C4.71636 14.7171 4.54145 14.9766 4.30801 15.1761L1.1363 17.8879C1.00226 18.0025 0.927121 18.1692 0.929977 18.3455C0.932832 18.5219 1.01333 18.686 1.15093 18.7962C1.40508 18.9996 1.69653 19.1338 2.0003 19.1974C1.71349 19.7251 1.65905 20.3687 1.88019 20.9522C1.94729 21.1287 2.03564 21.2877 2.14201 21.4278L0.64602 21.7256C0.456656 21.7256 0.303345 21.8789 0.303345 22.0682C0.303345 22.2574 0.456656 22.4109 0.64602 22.4109H21.1559H23.354C23.5433 22.4109 23.6966 22.2574 23.6966 22.0682C23.6966 21.8789 23.5432 21.7254 23.354 21.7254ZM15.5554 13.4337L16.7657 16.4451C16.7725 16.4619 16.7805 16.4781 16.7898 16.4936C17.0039 16.8502 17.309 17.1456 17.6722 17.3482L18.0734 17.5718L15.5554 16.8029V13.4337ZM19.2465 15.6971L22.3265 18.3302C21.9135 18.6061 21.3818 18.6305 20.9419 18.386L18.0059 16.7496C17.7548 16.6097 17.5426 16.4071 17.3909 16.1631L16.3122 13.4788L17.912 12.7804L18.536 14.6434C18.6731 15.0524 18.9188 15.4167 19.2465 15.6971ZM10.4041 5.61334V4.01812C10.4041 3.05666 11.1863 2.2744 12.1478 2.2744C13.1092 2.2744 13.8915 3.05666 13.8915 4.01812V5.61334C13.8915 6.5748 13.1092 7.35706 12.1478 7.35706C11.1863 7.35706 10.4041 6.5748 10.4041 5.61334ZM8.363 8.97442L10.6937 8.24266C11.5483 7.97423 12.4517 7.97423 13.3063 8.24266L15.637 8.97442C16.337 9.1943 16.894 9.7408 17.1269 10.4367L17.6936 12.1281L16.0564 12.8425L15.5306 11.5343C15.4694 11.3821 15.309 11.2944 15.1476 11.3257C14.9864 11.3569 14.8701 11.4981 14.8701 11.6621V16.7139H9.12991V11.6621C9.12991 11.4981 9.01354 11.3569 8.85238 11.3257C8.69157 11.2944 8.53059 11.3821 8.46937 11.5343L8.01425 12.6666L6.39708 11.8579L6.87307 10.4367C7.10599 9.7408 7.66301 9.1943 8.363 8.97442ZM4.75331 15.6971C5.08117 15.4167 5.32693 15.0524 5.46382 14.6434L6.17701 12.5141L7.75778 13.3046L7.50863 13.9245C7.43813 14.1001 7.52326 14.2996 7.69889 14.3703C7.87433 14.4408 8.07404 14.3557 8.14454 14.18L8.44456 13.4338V16.8019L5.97605 17.5443L6.32765 17.3482C6.69085 17.1458 6.99604 16.8504 7.21022 16.4938C7.2195 16.4783 7.22753 16.4621 7.23431 16.4451L7.49042 15.8076C7.5611 15.632 7.47597 15.4324 7.30035 15.3619C7.12473 15.2912 6.92519 15.3764 6.85451 15.552L6.60893 16.1631C6.45722 16.4073 6.24519 16.6097 5.99408 16.7496L3.05849 18.3859C2.61819 18.6305 2.08668 18.6061 1.67351 18.3302L4.75331 15.6971ZM3.57839 21.4276H3.57714C3.07919 21.4276 2.6944 21.1658 2.5211 20.7091C2.32513 20.1922 2.45934 19.5829 2.8461 19.2011L8.83757 17.3992H15.1617L20.8498 19.1362C21.2936 19.2716 21.6092 19.625 21.6938 20.0814C21.7784 20.5377 21.6106 20.9807 21.2447 21.2663L21.0382 21.4278H13.8017C13.7575 21.1876 13.6507 20.8681 13.3982 20.5838L14.0809 20.5461C14.2699 20.5358 14.4146 20.3741 14.4041 20.1851C14.3937 19.9962 14.232 19.8517 14.0432 19.8619L12.186 19.9645C12.1074 19.9504 12.0255 19.9386 11.9395 19.9299L6.65426 19.3778C6.46472 19.358 6.29749 19.4949 6.27785 19.683C6.25822 19.8713 6.39493 20.0398 6.58305 20.0594L11.8686 20.6115C11.9486 20.6197 12.0237 20.6309 12.0941 20.6445L12.0985 20.6454C12.7826 20.7796 13.0232 21.1519 13.1062 21.4276H3.57839Z" fill="#4A5568" stroke="#4A5568" stroke-width="0.5"/>
<path d="M15.8386 20.4485C15.8449 20.4485 15.8513 20.4485 15.8577 20.4482L18.1688 20.3205C18.3577 20.31 18.5024 20.1485 18.4921 19.9595C18.4817 19.7705 18.3198 19.6256 18.131 19.6363L15.8201 19.7639C15.6311 19.7742 15.4863 19.9359 15.4967 20.1248C15.5069 20.3073 15.6578 20.4485 15.8386 20.4485V20.4485Z" fill="#4A5568" stroke="#4A5568" stroke-width="0.5"/>
</svg>
