<svg width="24" height="24" viewBox="0 0 24 24" fill="none" xmlns="http://www.w3.org/2000/svg">
<path d="M22.2174 7.40311H21.1957C21.0158 7.40311 20.8452 7.43989 20.6848 7.49711V5.8705C20.6848 5.02552 19.9972 4.33789 19.1522 4.33789H18.1304C17.2855 4.33789 16.5978 5.02552 16.5978 5.8705V9.44659H7.40217V5.8705C7.40217 5.02552 6.71454 4.33789 5.86957 4.33789H4.84783C4.00285 4.33789 3.31522 5.02552 3.31522 5.8705V7.49711C3.1548 7.43989 2.98417 7.40311 2.80435 7.40311H1.78261C0.93763 7.40311 0.25 8.09074 0.25 8.93572V15.0662C0.25 15.9111 0.93763 16.5988 1.78261 16.5988H2.80435C2.98417 16.5988 3.1548 16.562 3.31522 16.5048V18.1314C3.31522 18.9763 4.00285 19.664 4.84783 19.664H5.86957C6.71454 19.664 7.40217 18.9763 7.40217 18.1314V14.5553H16.5978V18.1314C16.5978 18.9763 17.2855 19.664 18.1304 19.664H19.1522C19.9972 19.664 20.6848 18.9763 20.6848 18.1314V16.5048C20.8452 16.562 21.0158 16.5988 21.1957 16.5988H22.2174C23.0624 16.5988 23.75 15.9111 23.75 15.0662V8.93572C23.75 8.09074 23.0624 7.40311 22.2174 7.40311ZM3.31522 15.0662C3.31522 15.3476 3.08584 15.577 2.80435 15.577H1.78261C1.50112 15.577 1.27174 15.3476 1.27174 15.0662V8.93572C1.27174 8.65423 1.50112 8.42485 1.78261 8.42485H2.80435C3.08584 8.42485 3.31522 8.65423 3.31522 8.93572V15.0662ZM6.38043 18.1314C6.38043 18.4129 6.15105 18.6422 5.86957 18.6422H4.84783C4.56634 18.6422 4.33696 18.4129 4.33696 18.1314V15.0662V8.93572V5.8705C4.33696 5.58901 4.56634 5.35963 4.84783 5.35963H5.86957C6.15105 5.35963 6.38043 5.58901 6.38043 5.8705V18.1314ZM16.5978 13.5335H7.40217V10.4683H16.5978V13.5335ZM19.663 8.93572V15.0662V18.1314C19.663 18.4129 19.4337 18.6422 19.1522 18.6422H18.1304C17.8489 18.6422 17.6196 18.4129 17.6196 18.1314V5.8705C17.6196 5.58901 17.8489 5.35963 18.1304 5.35963H19.1522C19.4337 5.35963 19.663 5.58901 19.663 5.8705V8.93572ZM22.7283 15.0662C22.7283 15.3476 22.4989 15.577 22.2174 15.577H21.1957C20.9142 15.577 20.6848 15.3476 20.6848 15.0662V8.93572C20.6848 8.65423 20.9142 8.42485 21.1957 8.42485H22.2174C22.4989 8.42485 22.7283 8.65423 22.7283 8.93572V15.0662Z" fill="#4A5568" stroke="#4A5568" stroke-width="0.4"/>
</svg>
