<svg width="24" height="24" viewBox="0 0 24 24" fill="none" xmlns="http://www.w3.org/2000/svg">
<path d="M18.8875 4.00391C18.6369 4.00391 18.4336 4.20724 18.4336 4.45778C18.4336 4.70831 18.6369 4.91165 18.8875 4.91165C19.138 4.91165 19.3413 4.70831 19.3413 4.45778C19.3413 4.2072 19.138 4.00391 18.8875 4.00391Z" fill="#4A5568" stroke="#4A5568" stroke-width="0.6"/>
<path d="M22.0059 3.63792C20.9228 2.4205 19.4203 1.75005 17.7755 1.75005C15.9768 1.75005 14.3355 2.44724 13.0292 3.76628C12.5749 4.22491 12.2353 4.68314 12 5.04678C11.7646 4.68319 11.425 4.225 10.9708 3.76628C9.66439 2.44719 8.02314 1.75 6.22445 1.75C2.78157 1.75 0.380859 4.63031 0.380859 8.05477C0.380859 12.6805 5.28285 16.5754 11.7027 22.1391C11.788 22.2131 11.894 22.25 12 22.25C12.1059 22.25 12.2119 22.2131 12.2972 22.1391C18.7324 16.5621 23.6191 12.6741 23.6191 8.05477C23.6191 6.37567 23.0462 4.80709 22.0059 3.63792ZM12 21.1957C5.93765 15.9497 1.2886 12.1819 1.2886 8.05477C1.2886 4.97798 3.41054 2.65779 6.22445 2.65779C7.78686 2.65779 9.15923 3.23811 10.3034 4.38254C11.1751 5.25443 11.5819 6.14424 11.5859 6.15314C11.6589 6.31594 11.8208 6.42052 11.9993 6.42088C11.9996 6.42088 11.9999 6.42088 12.0001 6.42088C12.1786 6.42088 12.3407 6.3159 12.4141 6.15314C12.4181 6.14424 12.8248 5.25448 13.6965 4.38254C14.8407 3.23806 16.2131 2.65779 17.7755 2.65779C20.5894 2.65779 22.7114 4.97798 22.7114 8.05477C22.7113 12.275 17.7555 16.2152 12 21.1957Z" fill="#4A5568" stroke="#4A5568" stroke-width="0.6"/>
<path d="M20.4773 5.61817C20.3609 5.39613 20.0865 5.31062 19.8646 5.427C19.6426 5.54342 19.557 5.81773 19.6734 6.03972C19.973 6.61101 20.138 7.29327 20.138 7.96082C20.138 9.27233 19.5138 10.6643 18.1735 12.3415C18.017 12.5373 18.049 12.8229 18.2448 12.9794C18.4418 13.1369 18.7272 13.1027 18.8827 12.9082C20.3584 11.0614 21.0457 9.48937 21.0457 7.96082C21.0457 7.13732 20.8492 6.32725 20.4773 5.61817Z" fill="#4A5568" stroke="#4A5568" stroke-width="0.6"/>
<path d="M15.5353 10.7921H13.4728V8.72962C13.4728 8.52621 13.3079 8.36133 13.1045 8.36133H10.8948C10.6913 8.36133 10.5265 8.52621 10.5265 8.72962V10.7921H8.464C8.26059 10.7921 8.0957 10.957 8.0957 11.1604V13.3702C8.0957 13.5736 8.26059 13.7385 8.464 13.7385H10.5265V15.8009C10.5265 16.0043 10.6913 16.1692 10.8948 16.1692H13.1045C13.3079 16.1692 13.4728 16.0043 13.4728 15.8009V13.7385H15.5353C15.7387 13.7385 15.9036 13.5736 15.9036 13.3702V11.1604C15.9036 10.957 15.7387 10.7921 15.5353 10.7921ZM15.167 13.0018H13.1045C12.9011 13.0018 12.7362 13.1667 12.7362 13.3701V15.4326H11.2631V13.3701C11.2631 13.1667 11.0982 13.0018 10.8948 13.0018H8.8323V11.5286H10.8948C11.0982 11.5286 11.2631 11.3638 11.2631 11.1603V9.09788H12.7362V11.1603C12.7362 11.3638 12.9011 11.5286 13.1045 11.5286H15.167V13.0018Z" fill="#4A5568" stroke="#4A5568" stroke-width="0.6"/>
</svg>
