<svg width="24" height="24" viewBox="0 0 24 24" fill="none" xmlns="http://www.w3.org/2000/svg">
<path d="M10.9902 11.4393C10.9466 11.4393 10.9045 11.4457 10.8645 11.4571L10.8644 11.4568L9.54613 11.8326C9.30237 11.9021 9.16104 12.156 9.23053 12.3998C9.28804 12.6016 9.47187 12.7331 9.67171 12.7331C9.71334 12.7331 9.7557 12.7273 9.79775 12.7154L10.5312 12.5064V14.1321L4.83984 15.7544V14.1286L5.82501 13.8478C6.06877 13.7783 6.2101 13.5244 6.14061 13.2806C6.07112 13.0369 5.81725 12.8957 5.57339 12.965L4.25505 13.3408L4.2551 13.3411C4.06283 13.3959 3.92188 13.5724 3.92188 13.7822V19.6204C3.53803 19.3316 3.06119 19.1602 2.54492 19.1602C1.2795 19.1602 0.25 20.1897 0.25 21.4551C0.25 22.7205 1.2795 23.75 2.54492 23.75C3.81034 23.75 4.83984 22.7205 4.83984 21.4551V16.7089L10.5312 15.0866V17.7365C10.1474 17.4477 9.67056 17.2763 9.1543 17.2763C7.88888 17.2763 6.85938 18.3058 6.85938 19.5712C6.85938 20.8366 7.88888 21.8661 9.1543 21.8661C10.4197 21.8661 11.4492 20.8366 11.4492 19.5712V11.8983C11.4492 11.6448 11.2437 11.4393 10.9902 11.4393V11.4393ZM2.54492 22.832C1.78567 22.832 1.16797 22.2143 1.16797 21.4551C1.16797 20.6958 1.78567 20.0781 2.54492 20.0781C3.30417 20.0781 3.92188 20.6958 3.92188 21.4551C3.92188 22.2143 3.30417 22.832 2.54492 22.832ZM9.1543 20.9481C8.39504 20.9481 7.77734 20.3304 7.77734 19.5712C7.77734 18.8119 8.39504 18.1942 9.1543 18.1942C9.91355 18.1942 10.5312 18.8119 10.5312 19.5712C10.5312 20.3304 9.91355 20.9481 9.1543 20.9481Z" fill="#4A5568" stroke="#4A5568" stroke-width="0.3"/>
<path d="M23.567 0.342246C23.4517 0.255544 23.3025 0.228096 23.1639 0.267936L18.3717 1.64897C18.1752 1.70561 18.0399 1.88544 18.0399 2.09001V7.92825C17.656 7.63946 17.1792 7.46802 16.6629 7.46802C15.3975 7.46802 14.368 8.49753 14.368 9.76295C14.368 11.0284 15.3975 12.0579 16.6629 12.0579C17.9283 12.0579 18.9578 11.0284 18.9578 9.76295V5.01567L23.4181 3.73028C23.6146 3.67365 23.75 3.49382 23.75 3.28925V0.708974C23.75 0.564761 23.6822 0.428948 23.567 0.342246V0.342246ZM16.6629 11.1399C15.9037 11.1399 15.2859 10.5222 15.2859 9.76295C15.2859 9.00369 15.9037 8.38599 16.6629 8.38599C17.4222 8.38599 18.0399 9.00369 18.0399 9.76295C18.0399 10.5222 17.4222 11.1399 16.6629 11.1399ZM22.832 2.94386L18.9578 4.06034V2.4354L22.832 1.31892V2.94386Z" fill="#4A5568" stroke="#4A5568" stroke-width="0.3"/>
<path d="M21.8953 16.2576L19.6789 15.9356L18.6877 13.9272C18.6104 13.7706 18.4508 13.6714 18.2762 13.6714C18.1015 13.6714 17.9419 13.7706 17.8646 13.9272L16.8734 15.9356L14.6571 16.2576C14.4842 16.2827 14.3406 16.4039 14.2865 16.57C14.2325 16.7362 14.2776 16.9186 14.4027 17.0405L16.0064 18.6038L15.6278 20.8112C15.5983 20.9834 15.669 21.1574 15.8104 21.2601C15.9517 21.3628 16.1391 21.3764 16.2938 21.2951L18.2761 20.2529L20.2585 21.295C20.3256 21.3304 20.399 21.3478 20.472 21.3478C20.5671 21.3478 20.6619 21.3182 20.7418 21.2601C20.8832 21.1574 20.954 20.9834 20.9244 20.8112L20.5458 18.6038L22.1495 17.0405C22.2746 16.9185 22.3197 16.7361 22.2657 16.57C22.2117 16.4038 22.0681 16.2827 21.8953 16.2576V16.2576ZM19.7323 18.1149C19.6241 18.2203 19.5748 18.3722 19.6003 18.5211L19.8625 20.0497L18.4897 19.328C18.356 19.2577 18.1963 19.2577 18.0625 19.328L16.6898 20.0497L16.9519 18.5211C16.9775 18.3722 16.9281 18.2203 16.8199 18.1149L15.7094 17.0323L17.2442 16.8093C17.3937 16.7876 17.5229 16.6937 17.5897 16.5582L18.2762 15.1674L18.9625 16.5582C19.0294 16.6937 19.1586 16.7876 19.3081 16.8093L20.8429 17.0323L19.7323 18.1149Z" fill="#4A5568" stroke="#4A5568" stroke-width="0.3"/>
<path d="M1.74718 4.41326L1.44334 6.18462C1.41378 6.35679 1.48455 6.53083 1.62592 6.63355C1.76724 6.73623 1.95469 6.74982 2.10928 6.66848L3.70003 5.83217L5.29082 6.66848C5.35797 6.70378 5.43131 6.72117 5.50434 6.72117C5.59949 6.72117 5.69422 6.69162 5.77418 6.63351C5.91554 6.53079 5.98632 6.35679 5.95676 6.18458L5.65291 4.41322L6.9399 3.15877C7.06502 3.03682 7.11005 2.85442 7.05607 2.68826C7.0021 2.52211 6.85843 2.40103 6.68553 2.37588L4.90697 2.11742L4.11164 0.505838C4.03435 0.349187 3.87481 0.25 3.70007 0.25C3.52534 0.25 3.36579 0.349187 3.2885 0.505838L2.49313 2.11747L0.714561 2.37592C0.541662 2.40103 0.398046 2.52216 0.344023 2.68831C0.290001 2.85446 0.335073 3.03686 0.460192 3.15881L1.74718 4.41326ZM2.86389 2.99119C3.01338 2.96948 3.14263 2.87557 3.20946 2.74013L3.70003 1.74611L4.19059 2.74013C4.25746 2.87557 4.38667 2.96948 4.53616 2.99119L5.63313 3.1506L4.83945 3.92435C4.73127 4.02983 4.68188 4.18175 4.70745 4.33065L4.89485 5.42321L3.91368 4.90741C3.84681 4.87225 3.77346 4.85467 3.70012 4.85467C3.62673 4.85467 3.55338 4.87225 3.48655 4.90741L2.50538 5.42321L2.69278 4.33065C2.71835 4.18175 2.66896 4.02983 2.56078 3.92435L1.76692 3.1506L2.86389 2.99119Z" fill="#4A5568" stroke="#4A5568" stroke-width="0.3"/>
<path d="M10.9902 4.2113C10.7367 4.2113 10.5312 4.41679 10.5312 4.67029V5.12927C10.5312 5.38277 10.7367 5.58826 10.9902 5.58826C11.2437 5.58826 11.4492 5.38277 11.4492 5.12927V4.67029C11.4492 4.41679 11.2437 4.2113 10.9902 4.2113Z" fill="#4A5568" stroke="#4A5568" stroke-width="0.3"/>
<path d="M10.9902 7.42419C10.7367 7.42419 10.5312 7.62968 10.5312 7.88318V8.34216C10.5312 8.59566 10.7367 8.80115 10.9902 8.80115C11.2437 8.80115 11.4492 8.59566 11.4492 8.34216V7.88318C11.4492 7.62968 11.2437 7.42419 10.9902 7.42419Z" fill="#4A5568" stroke="#4A5568" stroke-width="0.3"/>
<path d="M12.8261 6.04724H12.3671C12.1136 6.04724 11.9081 6.25273 11.9081 6.50623C11.9081 6.75972 12.1136 6.96521 12.3671 6.96521H12.8261C13.0796 6.96521 13.2851 6.75972 13.2851 6.50623C13.2851 6.25273 13.0796 6.04724 12.8261 6.04724V6.04724Z" fill="#4A5568" stroke="#4A5568" stroke-width="0.3"/>
<path d="M9.1543 6.96521H9.61328C9.86678 6.96521 10.0723 6.75972 10.0723 6.50623C10.0723 6.25273 9.86678 6.04724 9.61328 6.04724H9.1543C8.9008 6.04724 8.69531 6.25273 8.69531 6.50623C8.69531 6.75972 8.9008 6.96521 9.1543 6.96521Z" fill="#4A5568" stroke="#4A5568" stroke-width="0.3"/>
<path d="M7.68555 13.2994C7.80626 13.2994 7.92468 13.2503 8.01005 13.1649C8.09542 13.0795 8.14453 12.9611 8.14453 12.8404C8.14453 12.7192 8.09542 12.6013 8.01005 12.5154C7.92468 12.4301 7.80626 12.3814 7.68555 12.3814C7.56483 12.3814 7.44642 12.4301 7.36104 12.5154C7.27567 12.6013 7.22656 12.7192 7.22656 12.8404C7.22656 12.9611 7.27567 13.0795 7.36104 13.1649C7.44642 13.2503 7.56483 13.2994 7.68555 13.2994Z" fill="#4A5568" stroke="#4A5568" stroke-width="0.3"/>
</svg>
