<svg width="24" height="24" viewBox="0 0 24 24" fill="none" xmlns="http://www.w3.org/2000/svg">
<g clip-path="url(#clip0)">
<path d="M23.7149 0.218244C23.5327 0.0567243 23.291 -0.0207711 23.0489 0.00479282L7.62012 1.71908C7.18583 1.76715 6.85722 2.13418 6.85727 2.57108V17.8456C6.0801 17.3815 5.19094 17.1385 4.2858 17.1427C1.92262 17.1427 0 18.6805 0 20.5714C0 22.4622 1.92262 24 4.28575 24C6.64889 24 8.57151 22.4622 8.57151 20.5714V7.62832L22.286 6.10001V16.1287C21.5085 15.6656 20.6195 15.4235 19.7145 15.4284C17.3513 15.4284 15.4288 16.9662 15.4288 18.8571C15.4288 20.748 17.3514 22.2857 19.7145 22.2857C22.0777 22.2857 24.0003 20.748 24.0003 18.8571V0.856841C24.0003 0.613054 23.8965 0.380819 23.7149 0.218244ZM4.28575 22.2857C2.89204 22.2857 1.71429 21.5005 1.71429 20.5714C1.71429 19.6422 2.89204 18.8571 4.28575 18.8571C5.67947 18.8571 6.85722 19.6422 6.85722 20.5714C6.85722 21.5005 5.67952 22.2857 4.28575 22.2857ZM19.7145 20.5714C18.3208 20.5714 17.1431 19.7862 17.1431 18.8571C17.1431 17.9279 18.3208 17.1428 19.7145 17.1428C21.1082 17.1428 22.286 17.9279 22.286 18.8571C22.286 19.7862 21.1083 20.5714 19.7145 20.5714ZM22.286 4.37542L8.57151 5.89947V3.34257L22.286 1.81426V4.37542Z" fill="#4A5568"/>
</g>
<defs>
<clipPath id="clip0">
<rect width="24" height="24" fill="white"/>
</clipPath>
</defs>
</svg>
